<svg id="Capa_1" enable-background="new 0 0 512 512" height="512" viewBox="0 0 512 512" width="512" xmlns="http://www.w3.org/2000/svg"><g><g><path d="m142.282 437.097c-6.083 0-12.025-2-16.989-5.829-6.907-5.328-10.868-13.387-10.868-22.11v-38.998c0-4.206 3.41-7.616 7.616-7.616s7.616 3.41 7.616 7.616v38.999c0 3.965 1.8 7.628 4.94 10.05 3.14 2.421 7.138 3.233 10.975 2.227l251.025-65.872c8.09-2.123 13.741-9.447 13.741-17.811v-41.639c0-4.206 3.41-7.616 7.616-7.616s7.616 3.41 7.616 7.616v41.639c0 15.283-10.324 28.665-25.106 32.544l-251.025 65.872c-2.374.622-4.777.928-7.157.928z" fill="#365e7d"/></g><g><g><g><path d="m181.737 162.461c0-33.344-27.263-60.321-60.714-59.855-32.475.452-58.877 27.133-59.007 59.61-.075 18.794 8.513 35.583 21.998 46.608 4.512 3.689 7.149 9.191 7.149 15.019v.579c0 11.534 3.143 22.85 9.091 32.731l8.677 14.417c5.661 9.405 19.257 9.52 25.075.211l8.934-14.294c6.305-10.088 9.649-21.745 9.649-33.642 0-5.852 2.676-11.355 7.203-15.065 13.396-10.976 21.945-27.648 21.945-46.319z" fill="#ffe07d"/></g><g><path d="m121.023 102.607c-3.006.042-5.96.311-8.846.786 28.47 4.616 50.214 29.295 50.214 59.068 0 18.67-8.549 35.342-21.945 46.32-4.527 3.71-7.203 9.212-7.203 15.065 0 11.897-3.343 23.554-9.649 33.642l-8.934 14.294c-.799 1.279-1.749 2.373-2.801 3.296 6.526 5.726 17.175 4.659 22.147-3.296l8.934-14.294c6.305-10.088 9.649-21.745 9.649-33.642 0-5.852 2.676-11.355 7.203-15.065 13.396-10.977 21.945-27.649 21.945-46.32 0-33.344-27.263-60.32-60.714-59.854z" fill="#ffd064"/></g><g><path d="m121.877 214.863c-2.22 0-4.325-.983-5.751-2.684l-21.086-25.161c-2.662-3.176-2.245-7.909.932-10.571 3.176-2.661 7.91-2.244 10.571.932l15.334 18.298 15.334-18.298c2.661-3.176 7.394-3.594 10.571-.932 3.176 2.662 3.593 7.395.932 10.571l-21.086 25.161c-1.426 1.701-3.531 2.684-5.751 2.684z" fill="#eab14d"/></g><g><path d="m121.877 278.826c-4.144 0-7.504-3.36-7.504-7.504v-63.963c0-4.144 3.36-7.504 7.504-7.504s7.504 3.36 7.504 7.504v63.963c-.001 4.144-3.36 7.504-7.504 7.504z" fill="#eab14d"/></g><g><path d="m121.89 303.044h-.027c-14.459 0-26.179-11.721-26.179-26.179v-20.035c0-1.238 1.004-2.242 2.242-2.242h47.902c1.238 0 2.242 1.004 2.242 2.242v20.035c-.001 14.458-11.722 26.179-26.18 26.179z" fill="#f1f4f6"/></g><g><path d="m145.826 254.587h-10.514v9.506c0 14.466-11.727 26.193-26.193 26.193-3.933 0-7.661-.873-11.009-2.426 4.159 8.964 13.234 15.184 23.766 15.184 14.466 0 26.193-11.727 26.193-26.193v-20.021c0-1.238-1.004-2.243-2.243-2.243z" fill="#dfeaef"/></g></g><g><g><path d="m29.044 174.099h-21.54c-4.144 0-7.504-3.36-7.504-7.504s3.36-7.504 7.504-7.504h21.54c4.144 0 7.504 3.36 7.504 7.504s-3.36 7.504-7.504 7.504z" fill="#ffd064"/></g><g><path d="m89.546 88.423c-2.911 0-5.681-1.704-6.9-4.55l-7.616-17.768c-1.633-3.81.132-8.22 3.941-9.853 3.81-1.632 8.22.132 9.853 3.941l7.615 17.769c1.633 3.81-.132 8.22-3.941 9.853-.963.412-1.966.608-2.952.608z" fill="#ffd064"/></g><g><path d="m40.937 117.655c-1.655 0-3.32-.545-4.707-1.664l-15.521-12.523c-3.225-2.602-3.73-7.326-1.128-10.552 2.603-3.225 7.326-3.729 10.552-1.128l15.521 12.523c3.225 2.602 3.73 7.326 1.128 10.552-1.483 1.837-3.655 2.792-5.845 2.792z" fill="#ffd064"/></g><g><path d="m236.25 174.099h-21.54c-4.144 0-7.504-3.36-7.504-7.504s3.36-7.504 7.504-7.504h21.54c4.144 0 7.504 3.36 7.504 7.504s-3.36 7.504-7.504 7.504z" fill="#ffd064"/></g><g><path d="m154.207 88.423c-.986 0-1.989-.195-2.953-.609-3.809-1.633-5.574-6.044-3.941-9.853l7.616-17.769c1.633-3.809 6.044-5.575 9.853-3.941 3.809 1.633 5.574 6.044 3.941 9.853l-7.616 17.769c-1.218 2.845-3.988 4.55-6.9 4.55z" fill="#ffd064"/></g><g><path d="m202.817 117.655c-2.191 0-4.362-.955-5.844-2.792-2.602-3.225-2.097-7.949 1.128-10.552l15.521-12.523c3.225-2.601 7.949-2.098 10.552 1.128 2.602 3.225 2.097 7.949-1.128 10.552l-15.521 12.523c-1.388 1.119-3.054 1.664-4.708 1.664z" fill="#ffd064"/></g></g></g><g><path d="m168.07 389.495h-91.753c-26.717 0-48.375-21.658-48.375-48.375v-5.28c0-2.761 2.239-5 5-5h178.503c2.761 0 5 2.239 5 5v5.28c0 26.716-21.658 48.375-48.375 48.375z" fill="#407093"/></g><g><path d="m211.442 330.84h-39.942c2.763 0 5.003 2.24 5.003 5.003v5.253c0 26.73-21.669 48.4-48.4 48.4h39.943c26.73 0 48.4-21.669 48.4-48.4v-5.253c-.001-2.763-2.241-5.003-5.004-5.003z" fill="#365e7d"/></g><g><g><g><g><path d="m477.609 97.732c0-33.344-27.263-60.321-60.714-59.855-32.475.452-58.877 27.133-59.007 59.61-.075 18.794 8.513 35.583 21.998 46.608 4.512 3.689 7.15 9.191 7.15 15.019v.579c0 11.534 3.143 22.85 9.091 32.731l8.677 14.417c5.661 9.405 19.257 9.52 25.075.211l8.934-14.294c6.305-10.088 9.649-21.745 9.649-33.642 0-5.853 2.676-11.355 7.203-15.065 13.395-10.977 21.944-27.649 21.944-46.319z" fill="#ffe07d"/></g><g><path d="m416.895 37.877c-3.006.042-5.96.311-8.846.786 28.47 4.616 50.214 29.295 50.214 59.068 0 18.67-8.549 35.342-21.945 46.32-4.527 3.71-7.203 9.212-7.203 15.065 0 11.897-3.343 23.554-9.649 33.642l-8.934 14.294c-.799 1.279-1.749 2.373-2.801 3.296 6.526 5.726 17.175 4.659 22.147-3.296l8.934-14.294c6.305-10.088 9.649-21.745 9.649-33.642 0-5.852 2.676-11.355 7.203-15.065 13.396-10.977 21.945-27.649 21.945-46.32 0-33.343-27.263-60.32-60.714-59.854z" fill="#ffd064"/></g><g><path d="m417.748 150.133c-2.22 0-4.325-.983-5.751-2.684l-21.086-25.161c-2.661-3.176-2.245-7.909.932-10.571 3.176-2.662 7.909-2.244 10.571.932l15.334 18.298 15.334-18.298c2.661-3.176 7.394-3.593 10.571-.932 3.176 2.662 3.593 7.395.932 10.571l-21.085 25.161c-1.426 1.701-3.532 2.684-5.752 2.684z" fill="#eab14d"/></g><g><path d="m417.748 214.096c-4.144 0-7.504-3.36-7.504-7.504v-63.962c0-4.144 3.36-7.504 7.504-7.504s7.504 3.36 7.504 7.504v63.963c0 4.143-3.359 7.503-7.504 7.503z" fill="#eab14d"/></g><g><path d="m417.762 238.314h-.027c-14.459 0-26.179-11.721-26.179-26.179v-20.035c0-1.238 1.004-2.242 2.242-2.242h47.902c1.238 0 2.242 1.004 2.242 2.242v20.035c-.001 14.459-11.722 26.179-26.18 26.179z" fill="#f1f4f6"/></g><g><path d="m441.698 189.858h-10.514v9.507c0 14.466-11.727 26.193-26.193 26.193-3.933 0-7.661-.873-11.009-2.426 4.159 8.964 13.234 15.184 23.766 15.184 14.466 0 26.193-11.727 26.193-26.193v-20.021c0-1.24-1.004-2.244-2.243-2.244z" fill="#dfeaef"/></g></g></g><g><path d="m463.625 324.836h-91.753c-26.717 0-48.375-21.658-48.375-48.375v-5.28c0-2.761 2.239-5 5-5h178.503c2.761 0 5 2.239 5 5v5.28c0 26.717-21.658 48.375-48.375 48.375z" fill="#407093"/></g><g><path d="m506.997 266.181h-39.943c2.763 0 5.003 2.24 5.003 5.003v5.253c0 26.73-21.669 48.4-48.4 48.4h39.943c26.73 0 48.4-21.669 48.4-48.4v-5.253c0-2.763-2.24-5.003-5.003-5.003z" fill="#365e7d"/></g></g><g><path d="m373.344 463.857-14.992-10.051c-23.587-15.814-40.136-40.144-46.179-67.891l-9.665-44.379c-1.744-8.008-8.833-13.719-17.029-13.719-8.196 0-15.285 5.711-17.029 13.719l-9.665 44.379c-6.043 27.747-22.592 52.078-46.179 67.891l-14.992 10.051c-4.605 3.087-2.42 10.272 3.125 10.272h169.479c5.545 0 7.731-7.185 3.126-10.272z" fill="#407093"/></g><g><path d="m373.344 463.857-14.992-10.051c-23.587-15.814-40.136-40.144-46.179-67.891l-9.665-44.379c-1.744-8.008-8.833-13.719-17.029-13.719s-15.285 5.711-17.029 13.719l-2.794 12.829 6.871 31.55c6.043 27.747 22.592 52.078 46.179 67.891l14.992 10.051c4.605 3.087 2.42 10.272-3.125 10.272h39.645c5.545 0 7.731-7.185 3.126-10.272z" fill="#365e7d"/></g><g><circle cx="285.48" cy="432.269" fill="#f1f4f6" r="11.614"/></g></g></svg>