<svg id="Capa_1" enable-background="new 0 0 512 512" height="512" viewBox="0 0 512 512" width="512" xmlns="http://www.w3.org/2000/svg"><g><g><g><path d="m272.375 353.162h-33.888l-16.012 75.05c-.615 2.88-.615 5.858 0 8.739l12.476 58.479c2.062 9.663 10.599 16.57 20.48 16.57 9.881 0 18.418-6.907 20.479-16.571l12.476-58.479c.615-2.88.615-5.858 0-8.739z" fill="#407093"/></g><g><path d="m288.387 428.212-16.012-75.05h-23.096l16.012 75.05c.615 2.881.615 5.858 0 8.739l-12.476 58.479c-1.179 5.525-4.479 10.141-8.931 13.088 3.336 2.208 7.316 3.483 11.548 3.483 9.881 0 18.418-6.907 20.479-16.571l12.476-58.479c.614-2.881.614-5.859 0-8.739z" fill="#365e7d"/></g></g><g><circle cx="255.431" cy="209.488" fill="#ddeafb" r="145.245"/></g><g><path d="m327.048 83.107c12.003 21.136 18.863 45.574 18.863 71.617 0 80.217-65.028 145.245-145.245 145.245-26.043 0-50.481-6.86-71.617-18.863 24.968 43.966 72.208 73.628 126.382 73.628 80.217 0 145.245-65.029 145.245-145.245 0-54.174-29.663-101.415-73.628-126.382z" fill="#bed8fb"/></g><g><g><path d="m72.315 263.105h-40.233v-99.438c0-2.222 1.801-4.023 4.023-4.023h32.186c2.222 0 4.023 1.801 4.023 4.023v99.438z" fill="#aad880"/></g></g><g><g><path d="m153.503 263.105h-40.232v-210.062c0-2.222 1.801-4.023 4.023-4.023h32.186c2.222 0 4.023 1.801 4.023 4.023z" fill="#9dc6fb"/></g></g><g><g><path d="m234.691 263.105h-40.232v-259.082c0-2.222 1.801-4.023 4.023-4.023h32.186c2.222 0 4.023 1.801 4.023 4.023z" fill="#ffd064"/></g></g><g><path d="m68.291 159.645h-13.28v76.184c0 2.222-1.801 4.023-4.023 4.023h-18.906v23.253h40.232v-99.438c.001-2.221-1.801-4.022-4.023-4.022z" fill="#80cb8e"/></g><g><path d="m149.48 49.02h-13.28v186.809c0 2.222-1.801 4.023-4.023 4.023h-18.906v23.253h40.232v-210.062c0-2.222-1.801-4.023-4.023-4.023z" fill="#80b4fb"/></g><g><path d="m230.668 0h-13.28v235.829c0 2.222-1.801 4.023-4.023 4.023h-18.906v23.253h40.232v-259.082c0-2.222-1.801-4.023-4.023-4.023z" fill="#ecbe6b"/></g><g><g><path d="m315.968 263.105h-40.232v-131.494c0-2.222 1.801-4.023 4.023-4.023h32.186c2.222 0 4.023 1.801 4.023 4.023z" fill="#cbafea"/></g></g><g><g><path d="m397.156 263.105h-40.232v-57.18c0-2.222 1.801-4.023 4.023-4.023h32.186c2.222 0 4.023 1.801 4.023 4.023z" fill="#9dc6fb"/></g></g><g><g><path d="m478.345 263.105h-40.232v-182.306c0-2.222 1.801-4.023 4.023-4.023h32.186c2.222 0 4.023 1.801 4.023 4.023z" fill="#ffd064"/></g></g><g><path d="m311.945 127.588h-13.28v108.241c0 2.222-1.801 4.023-4.023 4.023h-18.906v23.253h40.232v-131.494c0-2.222-1.801-4.023-4.023-4.023z" fill="#bc95e2"/></g><g><path d="m393.133 201.902h-13.28v33.927c0 2.222-1.801 4.023-4.023 4.023h-18.906v23.253h40.232v-57.18c0-2.221-1.801-4.023-4.023-4.023z" fill="#80b4fb"/></g><g><path d="m474.321 76.776h-13.28v159.053c0 2.222-1.801 4.023-4.023 4.023h-18.906v23.253h40.232v-182.306c.001-2.222-1.801-4.023-4.023-4.023z" fill="#ecbe6b"/></g><g><path d="m504.521 270.585h-497.042c-4.131 0-7.479-3.349-7.479-7.479 0-4.131 3.349-7.479 7.479-7.479h497.042c4.131 0 7.479 3.349 7.479 7.479s-3.348 7.479-7.479 7.479z" fill="#dfeaef"/></g><g><path d="m255.431 362.213c-84.213 0-152.724-68.512-152.724-152.724s68.511-152.725 152.724-152.725 152.725 68.512 152.725 152.725-68.513 152.724-152.725 152.724zm0-290.491c-75.964 0-137.766 61.802-137.766 137.766s61.801 137.766 137.766 137.766 137.766-61.801 137.766-137.766-61.801-137.766-137.766-137.766z" fill="#365e7d"/></g></g></svg>