<svg id="Capa_1" enable-background="new 0 0 512 512" height="512" viewBox="0 0 512 512" width="512" xmlns="http://www.w3.org/2000/svg"><g><g><g fill="#f1f4f6"><path d="m423.727 22.829c-4.143 0-7.5 3.358-7.5 7.5v43.513c0 4.143 3.358 7.5 7.5 7.5s7.5-3.358 7.5-7.5v-43.513c.001-4.143-3.357-7.5-7.5-7.5z"/><path d="m93.465 395.603h-43.512c-4.143 0-7.5 3.358-7.5 7.5s3.358 7.5 7.5 7.5h43.513c4.143 0 7.5-3.358 7.5-7.5s-3.358-7.5-7.501-7.5z"/><path d="m423.722 163.653c4.143 0 7.5-3.358 7.5-7.501s-3.358-7.5-7.5-7.5h-74.809v-118.323c0-4.143-3.358-7.5-7.5-7.5s-7.5 3.358-7.5 7.5v118.323h-67.315v-118.323c0-4.143-3.358-7.5-7.501-7.5s-7.5 3.358-7.5 7.5v118.323h-67.314v-118.323c0-4.143-3.358-7.5-7.5-7.5s-7.501 3.358-7.501 7.5v118.323h-119.335c-4.143 0-7.5 3.358-7.5 7.5s3.358 7.501 7.5 7.501h119.334v67.314h-119.334c-4.143 0-7.5 3.358-7.5 7.5s3.358 7.501 7.5 7.501h119.334v67.315h-119.334c-4.143 0-7.5 3.358-7.5 7.501s3.358 7.5 7.5 7.5h119.334v74.819c0 4.143 3.358 7.5 7.501 7.5s7.5-3.358 7.5-7.5v-74.819h67.314v74.819c0 4.143 3.358 7.5 7.5 7.5 4.143 0 7.501-3.358 7.501-7.5v-74.819h67.315v74.819c0 4.143 3.358 7.5 7.5 7.5s7.5-3.358 7.5-7.5v-74.819h74.809c4.143 0 7.5-3.358 7.5-7.5s-3.358-7.501-7.5-7.501h-74.809v-67.315h74.809c4.143 0 7.5-3.358 7.5-7.501s-3.358-7.5-7.5-7.5h-74.809v-67.314zm-239.44 0h67.314v67.314h-67.314zm0 149.63v-67.315h67.314v67.315zm149.63 0h-67.315v-67.315h67.315zm0-82.316h-67.315v-67.314h67.315z"/><path d="m49.953 81.342h43.513c.169 0 .334-.014.5-.025.166.011.331.025.5.025 4.143 0 7.5-3.358 7.5-7.5v-43.513c0-4.143-3.358-7.5-7.5-7.5-4.143 0-7.5 3.358-7.5 7.5v36.012h-37.013c-4.143 0-7.5 3.358-7.5 7.5s3.357 7.501 7.5 7.501z"/></g><g><path d="m423.727 410.604h-329.261c-4.143 0-7.5-3.358-7.5-7.5v-329.262c0-4.143 3.358-7.5 7.5-7.5h329.262c4.143 0 7.5 3.358 7.5 7.5v329.262c0 4.143-3.358 7.5-7.501 7.5zm-321.761-15.001h314.261v-314.261h-314.261z" fill="#365e7d"/></g></g><g><g><path d="m293.366 316.783 72.267 191.978c1.521 4.041 7.105 4.384 9.109.559l38.256-73.021c1.416-2.703 3.623-4.91 6.326-6.326l73.021-38.256c3.825-2.004 3.482-7.588-.559-9.109l-191.978-72.267c-4.024-1.514-7.956 2.418-6.442 6.442z" fill="#407093"/></g><g><path d="m491.786 382.608-191.978-72.266c-4.023-1.515-7.956 2.418-6.441 6.441l4.331 11.504 144.305 54.321c4.041 1.521 4.384 7.105.559 9.109l-73.021 38.256c-2.703 1.416-4.91 3.623-6.326 6.326l-14.464 27.609 16.884 44.853c1.521 4.041 7.105 4.384 9.109.559l38.256-73.021c1.416-2.703 3.623-4.91 6.326-6.326l73.021-38.256c3.823-2.004 3.48-7.588-.561-9.109z" fill="#365e7d"/></g></g><g><circle cx="201.251" cy="8.851" fill="#407093" r="8.851"/></g><g><circle cx="284.183" cy="8.851" fill="#407093" r="8.851"/></g><g><circle cx="201.251" cy="8.851" fill="#407093" r="8.851"/></g><g><circle cx="118.32" cy="8.851" fill="#407093" r="8.851"/></g><g><circle cx="118.32" cy="8.851" fill="#407093" r="8.851"/></g><g><circle cx="367.115" cy="8.851" fill="#407093" r="8.851"/></g><g><circle cx="450.046" cy="8.851" fill="#407093" r="8.851"/></g><g><circle cx="367.115" cy="8.851" fill="#407093" r="8.851"/></g><g><circle cx="25.826" cy="299.648" fill="#407093" r="8.851"/></g><g><circle cx="25.826" cy="216.716" fill="#407093" r="8.851"/></g><g><circle cx="25.826" cy="299.648" fill="#407093" r="8.851"/></g><g><circle cx="25.826" cy="382.579" fill="#407093" r="8.851"/></g><g><circle cx="25.826" cy="382.579" fill="#407093" r="8.851"/></g><g><circle cx="25.826" cy="133.785" fill="#407093" r="8.851"/></g><g><circle cx="25.826" cy="50.853" fill="#407093" r="8.851"/></g><g><circle cx="25.826" cy="133.785" fill="#407093" r="8.851"/></g></g></svg>