<svg id="Capa_1" enable-background="new 0 0 512 512" height="512" viewBox="0 0 512 512" width="512" xmlns="http://www.w3.org/2000/svg"><g><g><g><circle cx="229.555" cy="229.555" fill="#dd636e" r="222.055"/></g><g><path d="m357.681 48.178c25.619 36.2 40.678 80.403 40.678 128.126 0 122.638-99.417 222.055-222.055 222.055-47.723 0-91.926-15.059-128.126-40.678 40.217 56.827 106.462 93.929 181.377 93.929 122.638 0 222.055-99.417 222.055-222.055 0-74.915-37.102-141.161-93.929-181.377z" fill="#da4a54"/></g><g><path d="m229.555 459.11c-61.316 0-118.962-23.878-162.32-67.235s-67.235-101.004-67.235-162.32 23.878-118.962 67.235-162.32 101.004-67.235 162.32-67.235 118.963 23.878 162.32 67.235 67.235 101.004 67.235 162.32-23.878 118.963-67.235 162.32-101.004 67.235-162.32 67.235zm0-444.11c-118.306 0-214.555 96.249-214.555 214.555s96.249 214.555 214.555 214.555 214.555-96.249 214.555-214.555-96.249-214.555-214.555-214.555z" fill="#365e7d"/></g><g><g><path d="m229.555 400.309c-94.154 0-170.754-76.6-170.754-170.754s76.6-170.754 170.754-170.754 170.754 76.6 170.754 170.754-76.6 170.754-170.754 170.754zm0-311.509c-77.612 0-140.755 63.143-140.755 140.755s63.142 140.754 140.754 140.754 140.754-63.142 140.754-140.754-63.141-140.755-140.753-140.755z" fill="#f1f1f4"/></g></g><g><g><path d="m229.555 322.684c-51.352 0-93.13-41.778-93.13-93.13s41.778-93.13 93.13-93.13 93.13 41.778 93.13 93.13-41.778 93.13-93.13 93.13zm0-156.259c-34.81 0-63.13 28.32-63.13 63.13s28.32 63.13 63.13 63.13 63.13-28.32 63.13-63.13-28.32-63.13-63.13-63.13z" fill="#f1f1f4"/></g></g><g><circle cx="229.555" cy="229.555" fill="#f1f1f4" r="16.536"/></g><g><path d="m397.337 197.74c-10.11 105.522-94.076 189.488-199.598 199.597 10.311 1.951 20.945 2.972 31.815 2.972 94.154 0 170.754-76.6 170.754-170.754.001-10.87-1.019-21.504-2.971-31.815z" fill="#f1f4f6"/></g></g><g><g><path d="m476.053 507.257 31.204-31.204c6.324-6.324 6.324-16.578 0-22.902l-17.278-17.278-15.425-7.791-46.472 46.472 7.791 15.425 17.278 17.278c6.324 6.324 16.578 6.324 22.902 0z" fill="#f1f4f6"/></g><g><path d="m453.151 507.257-6.888-6.888 25.908-25.908c6.324-6.324 6.324-16.578 0-22.902l-10.547-10.547 12.93-12.93 15.425 7.791 17.278 17.278c6.324 6.324 6.324 16.578 0 22.902l-31.204 31.204c-6.324 6.324-16.578 6.324-22.902 0z" fill="#dfeaef"/></g><g><path d="m345.69 291.584-5.784-.2-48.522 48.523.196 5.78 144.292 144.292 54.107-54.107-73.301-73.3-12.74 2.053 1.771-13.022z" fill="#407093"/></g><g><path d="m345.69 291.584-5.784-.2-14.331 14.331c1.047.572 2.014 1.279 2.867 2.116l143.729 143.729c.358.358.689.732 1.007 1.114l16.801-16.801z" fill="#365e7d"/></g><g><path d="m291.58 345.687c-.979-.999-1.783-2.15-2.394-3.408l-20.995-43.202.089-6.804 24-24 6.797-.082 43.209 20.988c1.258.611 2.406 1.426 3.405 2.405z" fill="#ffcbbe"/></g><g><path d="m328.442 307.83c-.999-.979-2.146-1.794-3.405-2.405l-43.209-20.988-3.835-1.878 14.287-14.287 6.797-.082 43.209 20.988c1.258.611 2.406 1.426 3.405 2.405l-16.748 16.746z" fill="#eaac9d"/></g><g><path d="m268.191 299.076-21.939-44.812c-2.508-5.124 2.889-10.52 8.012-8.012l44.812 21.939z" fill="#407093"/></g><g><path d="m281.828 284.437-27.363-13.396-8.214-16.777c-2.508-5.124 2.888-10.52 8.012-8.012l44.813 21.939-16.574 16.574z" fill="#365e7d"/></g></g></g></svg>