<svg id="Capa_1" enable-background="new 0 0 511.527 511.527" height="512" viewBox="0 0 511.527 511.527" width="512" xmlns="http://www.w3.org/2000/svg"><g><g><path d="m446.178 412.307c-1.244-25.299-21.472-46.008-46.738-47.797-16.222-1.148-30.955 5.376-40.944 16.309-9.662 8.85-22.528 14.258-36.663 14.258-29.993 0-54.307-24.314-54.307-54.307v-.37h-20.748v.37c0 29.993-24.314 54.307-54.307 54.307-8.034 0-15.656-1.748-22.513-4.883-7.308-3.34-13.148-9.099-17.221-16.025-5.459-9.283-15.551-15.515-27.099-15.515-16.263 0-29.636 12.358-31.25 28.195-.001.006-.001.012-.002.019-.108 1.051-1.21 1.697-2.183 1.286-.188-.08-.344-.149-.439-.198-4.842-2.5-10.413-3.784-16.316-3.428-15.679.945-28.435 13.655-29.42 29.332-1.148 18.271 13.331 33.448 31.355 33.448 5.945 0 11.501-1.656 16.24-4.526.787-.477 1.764.182 1.583 1.085-.687 3.425-1.029 6.975-.983 10.612.346 27.714 22.76 49.836 50.477 49.833 19.693-.002 36.745-11.284 45.062-27.735.644-1.274 2.336-1.574 3.344-.563 5.689 5.709 13.559 9.242 22.254 9.242 9.868 0 18.674-4.55 24.433-11.667.859-1.061 2.444-1.058 3.303.003 5.508 6.803 13.799 11.26 23.141 11.637.061.002.149.004.255.006 1.19.015 2.292.647 2.902 1.669l.006.011c8.813 14.739 24.927 24.609 43.349 24.609 19.934 0 37.16-11.561 45.362-28.339.504-1.031 1.749-1.438 2.786-.946 4.074 1.932 8.627 3.017 13.436 3.017 13.126 0 24.372-8.05 29.071-19.482.278-.676.868-1.163 1.586-1.296 24.272-4.481 42.459-26.322 41.188-52.171z" fill="#407093"/></g><g><path d="m446.178 412.307c-1.082-22.007-16.533-40.535-37.166-46.163 7.735 8.428 12.666 19.456 13.26 31.538 1.271 25.849-16.916 47.69-41.188 52.173-.718.133-1.308.62-1.586 1.296-4.699 11.432-15.945 19.482-29.071 19.482-4.809 0-9.362-1.085-13.436-3.017-1.037-.492-2.282-.085-2.786.946-8.202 16.778-25.428 28.339-45.362 28.339-4.611 0-9.078-.619-13.322-1.777 9.227 10.078 22.487 16.402 37.228 16.402 19.934 0 37.16-11.561 45.362-28.339.504-1.031 1.749-1.438 2.786-.946 4.074 1.932 8.627 3.017 13.436 3.017 13.126 0 24.372-8.05 29.071-19.482.278-.676.868-1.163 1.586-1.296 24.272-4.483 42.459-26.324 41.188-52.173z" fill="#365e7d"/></g><g><g><path d="m404.836 288.103-15.751-51.488c-4.337-14.178-14.263-25.978-27.488-32.679l-22.408-11.353c-8.506-4.31-15.688-10.841-20.785-18.901l-18.566-29.362h-86.561l-18.566 29.362c-5.096 8.06-12.278 14.591-20.785 18.901l-22.408 11.353c-13.226 6.701-23.151 18.5-27.488 32.679l-15.751 51.488c-1.16 3.792 1.676 7.625 5.642 7.625h285.273c3.966 0 6.802-3.834 5.642-7.625z" fill="#dd636e"/></g><g><path d="m404.836 288.103-15.751-51.488c-4.337-14.178-14.263-25.978-27.488-32.679l-22.408-11.354c-8.506-4.31-15.688-10.841-20.785-18.901l-18.566-29.362h-32.674l18.566 29.362c5.096 8.06 12.278 14.591 20.785 18.901l22.408 11.354c13.226 6.701 23.151 18.5 27.488 32.679l15.751 51.488c1.16 3.792-1.676 7.625-5.642 7.625h32.674c3.966 0 6.802-3.834 5.642-7.625z" fill="#da4a54"/></g><g><path d="m303.451 237.359v-136.134c0-13.726-2.824-27.305-8.297-39.892l-21.911-50.393c-6.342-14.586-27.028-14.586-33.37 0l-21.911 50.394c-5.473 12.587-8.297 26.166-8.297 39.892v136.134c0 3.641-1.966 6.999-5.141 8.781l-13.454 7.552c-7.719 4.333-12.498 12.496-12.498 21.348v44.378c0 2.036 1.651 3.687 3.687 3.687h148.597c2.036 0 3.687-1.651 3.687-3.687v-44.378c0-8.852-4.779-17.015-12.498-21.348l-13.454-7.552c-3.174-1.783-5.14-5.14-5.14-8.782z" fill="#f1f4f6"/></g><g><path d="m322.046 253.693-13.454-7.552c-3.175-1.782-5.141-5.14-5.141-8.781v-136.135c0-13.726-2.824-27.305-8.297-39.892l-21.911-50.393c-5.003-11.508-18.931-13.929-27.703-7.279 2.347 1.779 4.329 4.2 5.667 7.278l21.911 50.394c5.473 12.588 8.297 26.166 8.297 39.892v136.134c0 3.641 1.966 6.999 5.141 8.781l13.454 7.552c7.719 4.333 12.498 12.496 12.498 21.348v44.378c0 2.036-1.651 3.687-3.687 3.687h22.036c2.036 0 3.687-1.651 3.687-3.687v-44.378c0-8.851-4.779-17.014-12.498-21.347z" fill="#dfeaef"/></g><g><circle cx="256.558" cy="109.438" fill="#407093" r="17.224"/></g><g><path d="m261.008 92.816c.38 1.422.602 2.909.602 4.45 0 9.512-7.711 17.224-17.224 17.224-1.542 0-3.028-.222-4.45-.602 1.964 7.351 8.651 12.773 16.622 12.773 9.512 0 17.224-7.711 17.224-17.224 0-7.969-5.422-14.656-12.774-16.621z" fill="#365e7d"/></g></g><g><g><path d="m256.558 340.179-9.865 2.988c-3.207-2.769-5.236-6.864-5.236-11.434v-86.675c0-2.036 1.651-3.687 3.687-3.687h22.827c2.036 0 3.687 1.651 3.687 3.687v86.675c0 4.012-1.564 7.658-4.116 10.362z" fill="#dfeaef"/></g><g><path d="m267.972 241.371h-11.272v75.403c0 8.34-6.761 15.101-15.101 15.101-.046 0-.089-.007-.135-.007.073 8.277 6.8 14.966 15.094 14.966 8.34 0 15.101-6.761 15.101-15.101v-86.675c0-2.036-1.651-3.687-3.687-3.687z" fill="#d0e2e7"/></g></g><g><circle cx="454.186" cy="351.231" fill="#407093" r="9.938"/></g><g><circle cx="495.396" cy="394.302" fill="#407093" r="9.938"/></g><g><circle cx="16.131" cy="431.922" fill="#407093" r="9.938"/></g></g></svg>