<svg id="Capa_1" enable-background="new 0 0 512 512" height="512" viewBox="0 0 512 512" width="512" xmlns="http://www.w3.org/2000/svg"><g><g><circle cx="368.381" cy="353.603" fill="#dd636e" r="143.619"/></g><g><path d="m406.244 215.039c43.271 24.743 72.434 71.344 72.434 124.76 0 79.318-64.3 143.619-143.618 143.619-13.107 0-25.799-1.766-37.863-5.055 20.983 11.998 45.282 18.859 71.185 18.859 79.318 0 143.618-64.3 143.618-143.619 0-66.212-44.81-121.949-105.756-138.564z" fill="#da4a54"/></g><g><path d="m279.995 359.438s-4.44 59.055-23.988 83.59c-26.313 33.026-66.879 54.194-112.388 54.194-79.319-.001-143.619-64.301-143.619-143.619s64.3-143.619 143.619-143.619c60.548 0 112.345 37.469 133.469 90.485 6.548 16.435 2.907 58.969 2.907 58.969z" fill="#ffd064"/></g><g><path d="m181.481 215.039c43.271 24.743 72.434 71.344 72.434 124.76 0 79.318-64.3 143.619-143.618 143.619-13.107 0-25.799-1.766-37.863-5.055 20.983 11.998 45.282 18.859 71.185 18.859 45.509 0 86.075-21.167 112.388-54.194 19.548-24.535 23.532-55.616 23.532-89.425 0-18.77 4.098-36.699-2.452-53.133-16.553-41.537-51.938-73.526-95.606-85.431z" fill="#ecbe6b"/></g><g><path d="m224.763 353.603c0 33.809 11.695 64.89 31.243 89.425 19.549-24.536 18.994-51.656 18.994-85.466 0-18.771 8.634-40.658 2.084-57.092-5.248-13.167-12.388-25.374-21.084-36.288-19.548 24.537-31.237 55.612-31.237 89.421z" fill="#ecbe6b"/></g><g><path d="m242.694 284.079c7.22 17.134 11.221 35.958 11.221 55.719 0 25.222-6.51 48.921-17.929 69.522 5.135 12.183 11.897 23.512 20.021 33.708 19.548-24.535 31.231-55.616 31.231-89.425s-11.689-64.884-31.237-89.42c-4.965 6.231-9.42 12.885-13.307 19.896z" fill="#eab14d"/></g><g><circle cx="256" cy="158.397" fill="#9dc6fb" r="143.619"/></g><g><path d="m293.863 19.833c43.271 24.743 72.434 71.344 72.434 124.76 0 79.318-64.3 143.619-143.619 143.619-13.106 0-25.799-1.766-37.863-5.055 20.983 11.998 45.282 18.859 71.185 18.859 79.318 0 143.618-64.3 143.618-143.619 0-66.212-44.81-121.949-105.755-138.564z" fill="#80b4fb"/></g><g><path d="m122.536 211.529c21.124 53.016 72.916 90.487 133.464 90.487 7.163 0 14.201-.532 21.083-1.544-21.124-53.016-72.916-90.487-133.464-90.487-7.163-.001-14.202.531-21.083 1.544z" fill="#aad880"/></g><path d="m277.083 300.471c-2.677-6.72-5.855-13.184-9.474-19.36-.013-.023-.022-.044-.036-.067-.001 0-.002.001-.004.001-18.667-31.821-49.227-55.821-85.586-65.877-.167-.044-.338-.085-.503-.13 28.063 16.047 50.177 41.296 62.263 71.628-6.876 1.013-13.909 1.545-21.067 1.545-13.081 0-25.749-1.76-37.792-5.037 19.02 10.865 40.754 17.521 63.943 18.665 2.375.054 4.765.197 7.171.176 7.165.001 14.203-.531 21.085-1.544z" fill="#80cb8e"/><g><path d="m234.917 300.471c6.882 1.012 13.92 1.544 21.083 1.544 60.548 0 112.34-37.471 133.464-90.487-6.882-1.013-13.92-1.545-21.083-1.545-60.548.001-112.34 37.472-133.464 90.488z" fill="#cbafea"/></g><g><path d="m389.464 211.529c-6.882-1.013-13.92-1.545-21.083-1.545-6.247 0-12.395.421-18.432 1.194-21.293 40.616-61.449 69.787-108.837 75.859-2.282 4.354-4.362 8.831-6.196 13.434 6.882 1.012 13.92 1.544 21.083 1.544 60.549.001 112.341-37.471 133.465-90.486z" fill="#bc95e2"/></g><g><path d="m256 302.016c7.163 0 14.198-.542 21.079-1.554-5.246-13.164-12.385-25.367-21.078-36.278-8.695 10.914-15.837 23.12-21.084 36.287 6.882 1.013 13.92 1.545 21.083 1.545z" fill="#f1f1f4"/></g><path d="m267.852 281.546c-.082-.162-.171-.329-.274-.505-3.463-5.901-7.335-11.533-11.577-16.858-4.967 6.235-9.407 12.904-13.297 19.92.356.845.688 1.703 1.028 2.557-.87.128-1.74.255-2.614.368-2.284 4.357-4.365 8.837-6.2 13.443 6.882 1.012 13.92 1.544 21.083 1.544s14.198-.542 21.079-1.554c-2.616-6.56-5.715-12.873-9.228-18.915z" fill="#f1f4f6"/></g></svg>