<svg id="Capa_1" enable-background="new 0 0 512 512" height="512" viewBox="0 0 512 512" width="512" xmlns="http://www.w3.org/2000/svg"><g><g><g><path d="m449.787 417.515-60.723-121.724c-1.275-2.556-.876-5.627 1.01-7.772 26.813-30.497 43.102-70.472 43.164-114.257.134-95.048-77.231-173.097-172.276-173.758-96.393-.67-174.744 77.268-174.744 173.506 0 16.619 2.339 32.692 6.702 47.909.656 2.288.438 4.737-.575 6.89l-30.221 64.208c-3.816 8.108-.175 17.765 8.044 21.336l29.915 12.996c1.086.472 1.806 1.525 1.85 2.708l.576 15.2c.058 1.525-.196 3.046-.747 4.47l-2.384 6.163c-1.993 5.152.063 10.987 4.845 13.752l10.693 6.184.045 19.85c.041 17.997 10.555 34.323 26.923 41.805 9.99 4.566 21.282 5.414 31.842 2.39l59.598-17.067c1.959-.224 3.849.802 4.73 2.566l39.253 78.687c3.758 7.533 12.912 10.594 20.445 6.836l145.198-72.433c7.535-3.758 10.595-12.911 6.837-20.445z" fill="#ffcbbe"/></g><g><g><path d="m449.787 417.515-60.723-121.724c-1.273-2.552-.881-5.622 1.003-7.764 26.818-30.498 43.109-70.477 43.171-114.266.134-95.047-77.231-173.096-172.276-173.757-11.253-.078-22.256.914-32.922 2.883 80.621 14.979 142.03 86.185 141.91 170.875-.06 42.425-15.354 81.275-40.697 111.39-1.599 1.901-2.652 4.2-2.968 6.664l-.012.092c-.324 2.53.122 5.1 1.28 7.373l79.709 156.484 35.688-17.803c7.534-3.76 10.595-12.913 6.837-20.447z" fill="#eaac9d"/></g></g></g><path d="m366.442 137.485h-9.716c-3.626-45.788-40.265-82.426-86.053-86.053v-9.716c0-4.128-3.346-7.475-7.475-7.475s-7.475 3.347-7.475 7.475v9.716c-45.788 3.626-82.426 40.265-86.053 86.053h-9.716c-4.129 0-7.475 3.347-7.475 7.475s3.346 7.475 7.475 7.475h9.716c3.626 45.788 40.265 82.426 86.053 86.053v9.716c0 4.128 3.346 7.475 7.475 7.475s7.475-3.347 7.475-7.475v-9.716c45.788-3.626 82.426-40.265 86.053-86.053h9.716c4.129 0 7.475-3.347 7.475-7.475 0-4.129-3.346-7.475-7.475-7.475zm-24.731 0h-44.381c-2.906-13.277-13.378-23.75-26.656-26.656v-44.381c37.536 3.546 67.491 33.5 71.037 71.037zm-71.349 26.12c-.917-3.091-3.774-5.347-7.163-5.347s-6.246 2.256-7.163 5.347c-5.265-2.03-9.452-6.217-11.482-11.482 3.091-.917 5.347-3.775 5.347-7.163s-2.256-6.246-5.347-7.163c2.03-5.265 6.217-9.452 11.482-11.482.917 3.091 3.774 5.347 7.163 5.347s6.246-2.256 7.163-5.347c5.265 2.03 9.452 6.217 11.482 11.482-3.091.917-5.347 3.775-5.347 7.163s2.256 6.246 5.347 7.163c-2.03 5.265-6.217 9.452-11.482 11.482zm-14.637-97.157v44.381c-13.278 2.906-23.75 13.379-26.656 26.656h-44.381c3.545-37.537 33.5-67.491 71.037-71.037zm-71.038 85.986h44.381c2.906 13.277 13.378 23.75 26.656 26.656v44.381c-37.536-3.546-67.491-33.5-71.037-71.037zm85.987 71.037v-44.381c13.278-2.906 23.75-13.379 26.656-26.656h44.381c-3.546 37.537-33.501 67.491-71.037 71.037z" fill="#365e7d"/></g></svg>